<mxfile host="65bd71144e">
    <diagram id="qrkY-lFCQesVWnXKF7Sn" name="ページ1">
        <mxGraphModel dx="642" dy="680" grid="1" gridSize="10" guides="1" tooltips="1" connect="1" arrows="1" fold="1" page="1" pageScale="1" pageWidth="1169" pageHeight="1654" math="0" shadow="0">
            <root>
                <mxCell id="0"/>
                <mxCell id="1" parent="0"/>
                <mxCell id="2" value="Actor" style="shape=umlActor;verticalLabelPosition=bottom;verticalAlign=top;html=1;outlineConnect=0;" parent="1" vertex="1">
                    <mxGeometry x="70" y="180" width="50" height="80" as="geometry"/>
                </mxCell>
                <mxCell id="3" value="本の登録画面" style="shape=umlBoundary;whiteSpace=wrap;html=1;" parent="1" vertex="1">
                    <mxGeometry x="180" y="110" width="100" height="80" as="geometry"/>
                </mxCell>
                <mxCell id="4" value="本の情報を入力" style="ellipse;shape=umlControl;whiteSpace=wrap;html=1;" parent="1" vertex="1">
                    <mxGeometry x="344" y="100" width="70" height="80" as="geometry"/>
                </mxCell>
                <mxCell id="5" value="" style="endArrow=open;endFill=1;endSize=12;html=1;entryX=0.014;entryY=0.619;entryDx=0;entryDy=0;entryPerimeter=0;" parent="1" target="4" edge="1">
                    <mxGeometry width="160" relative="1" as="geometry">
                        <mxPoint x="280" y="149.5" as="sourcePoint"/>
                        <mxPoint x="340" y="160" as="targetPoint"/>
                    </mxGeometry>
                </mxCell>
                <mxCell id="6" value="台帳" style="ellipse;shape=umlEntity;whiteSpace=wrap;html=1;" parent="1" vertex="1">
                    <mxGeometry x="720" y="270" width="80" height="80" as="geometry"/>
                </mxCell>
                <mxCell id="8" value="入力エラー" style="ellipse;shape=umlControl;whiteSpace=wrap;html=1;" parent="1" vertex="1">
                    <mxGeometry x="274" y="20" width="70" height="80" as="geometry"/>
                </mxCell>
                <mxCell id="9" value="" style="endArrow=open;endFill=1;endSize=12;html=1;" parent="1" source="107" edge="1">
                    <mxGeometry width="160" relative="1" as="geometry">
                        <mxPoint x="250" y="360" as="sourcePoint"/>
                        <mxPoint x="350" y="60" as="targetPoint"/>
                    </mxGeometry>
                </mxCell>
                <mxCell id="10" value="" style="endArrow=open;endFill=1;endSize=12;html=1;entryX=0.64;entryY=-0.037;entryDx=0;entryDy=0;entryPerimeter=0;exitX=-0.029;exitY=0.588;exitDx=0;exitDy=0;exitPerimeter=0;" parent="1" source="8" target="3" edge="1">
                    <mxGeometry width="160" relative="1" as="geometry">
                        <mxPoint x="250" y="360" as="sourcePoint"/>
                        <mxPoint x="410" y="360" as="targetPoint"/>
                    </mxGeometry>
                </mxCell>
                <mxCell id="11" value="確認画面" style="shape=umlBoundary;whiteSpace=wrap;html=1;" parent="1" vertex="1">
                    <mxGeometry x="180" y="240" width="100" height="80" as="geometry"/>
                </mxCell>
                <mxCell id="12" value="" style="endArrow=open;endFill=1;endSize=12;html=1;exitX=0.129;exitY=0.906;exitDx=0;exitDy=0;exitPerimeter=0;entryX=0.89;entryY=0.069;entryDx=0;entryDy=0;entryPerimeter=0;" parent="1" source="107" target="11" edge="1">
                    <mxGeometry width="160" relative="1" as="geometry">
                        <mxPoint x="250" y="370" as="sourcePoint"/>
                        <mxPoint x="410" y="370" as="targetPoint"/>
                    </mxGeometry>
                </mxCell>
                <mxCell id="13" value="戻るボタンを押す" style="ellipse;shape=umlControl;whiteSpace=wrap;html=1;" parent="1" vertex="1">
                    <mxGeometry x="350" y="230" width="70" height="80" as="geometry"/>
                </mxCell>
                <mxCell id="14" value="登録ボタンを押す" style="ellipse;shape=umlControl;whiteSpace=wrap;html=1;" parent="1" vertex="1">
                    <mxGeometry x="515" y="360" width="70" height="80" as="geometry"/>
                </mxCell>
                <mxCell id="15" value="メイン画面" style="shape=umlBoundary;whiteSpace=wrap;html=1;" parent="1" vertex="1">
                    <mxGeometry x="180" y="360" width="100" height="80" as="geometry"/>
                </mxCell>
                <mxCell id="16" value="" style="endArrow=open;endFill=1;endSize=12;html=1;entryX=1.01;entryY=0.744;entryDx=0;entryDy=0;entryPerimeter=0;" parent="1" source="13" target="3" edge="1">
                    <mxGeometry width="160" relative="1" as="geometry">
                        <mxPoint x="250" y="340" as="sourcePoint"/>
                        <mxPoint x="410" y="340" as="targetPoint"/>
                    </mxGeometry>
                </mxCell>
                <mxCell id="17" value="" style="endArrow=open;endFill=1;endSize=12;html=1;entryX=-0.014;entryY=0.619;entryDx=0;entryDy=0;entryPerimeter=0;" parent="1" target="13" edge="1">
                    <mxGeometry width="160" relative="1" as="geometry">
                        <mxPoint x="280" y="280" as="sourcePoint"/>
                        <mxPoint x="410" y="340" as="targetPoint"/>
                    </mxGeometry>
                </mxCell>
                <mxCell id="19" value="" style="endArrow=open;endFill=1;endSize=12;html=1;exitX=0.85;exitY=0.894;exitDx=0;exitDy=0;exitPerimeter=0;entryX=0.1;entryY=0.269;entryDx=0;entryDy=0;entryPerimeter=0;" parent="1" source="11" target="14" edge="1">
                    <mxGeometry width="160" relative="1" as="geometry">
                        <mxPoint x="250" y="340" as="sourcePoint"/>
                        <mxPoint x="410" y="340" as="targetPoint"/>
                    </mxGeometry>
                </mxCell>
                <mxCell id="20" value="" style="endArrow=open;endFill=1;endSize=12;html=1;entryX=1.01;entryY=0.481;entryDx=0;entryDy=0;entryPerimeter=0;" parent="1" target="15" edge="1">
                    <mxGeometry width="160" relative="1" as="geometry">
                        <mxPoint x="350" y="399.5" as="sourcePoint"/>
                        <mxPoint x="510" y="399.5" as="targetPoint"/>
                    </mxGeometry>
                </mxCell>
                <mxCell id="21" value="Actor" style="shape=umlActor;verticalLabelPosition=bottom;verticalAlign=top;html=1;" parent="1" vertex="1">
                    <mxGeometry x="90" y="790" width="30" height="60" as="geometry"/>
                </mxCell>
                <mxCell id="22" value="本の検索画面" style="shape=umlBoundary;whiteSpace=wrap;html=1;" parent="1" vertex="1">
                    <mxGeometry x="190" y="670" width="100" height="80" as="geometry"/>
                </mxCell>
                <mxCell id="23" value="本の更新画面" style="shape=umlBoundary;whiteSpace=wrap;html=1;" parent="1" vertex="1">
                    <mxGeometry x="190" y="800" width="100" height="80" as="geometry"/>
                </mxCell>
                <mxCell id="24" value="確認画面" style="shape=umlBoundary;whiteSpace=wrap;html=1;" parent="1" vertex="1">
                    <mxGeometry x="190" y="910" width="100" height="80" as="geometry"/>
                </mxCell>
                <mxCell id="25" value="メイン画面" style="shape=umlBoundary;whiteSpace=wrap;html=1;" parent="1" vertex="1">
                    <mxGeometry x="190" y="1040" width="100" height="80" as="geometry"/>
                </mxCell>
                <mxCell id="26" value="本の情報を入力し検索" style="ellipse;shape=umlControl;whiteSpace=wrap;html=1;" parent="1" vertex="1">
                    <mxGeometry x="370" y="670" width="70" height="80" as="geometry"/>
                </mxCell>
                <mxCell id="27" value="戻るボタンを押す" style="ellipse;shape=umlControl;whiteSpace=wrap;html=1;" parent="1" vertex="1">
                    <mxGeometry x="370" y="920" width="70" height="80" as="geometry"/>
                </mxCell>
                <mxCell id="28" value="更新する本の情報を入力" style="ellipse;shape=umlControl;whiteSpace=wrap;html=1;" parent="1" vertex="1">
                    <mxGeometry x="370" y="800" width="70" height="80" as="geometry"/>
                </mxCell>
                <mxCell id="31" value="" style="edgeStyle=none;html=1;" parent="1" source="29" target="22" edge="1">
                    <mxGeometry relative="1" as="geometry"/>
                </mxCell>
                <mxCell id="29" value="検索結果がないことを表示" style="ellipse;shape=umlControl;whiteSpace=wrap;html=1;" parent="1" vertex="1">
                    <mxGeometry x="290" y="580" width="70" height="80" as="geometry"/>
                </mxCell>
                <mxCell id="30" value="登録ボタンを押す" style="ellipse;shape=umlControl;whiteSpace=wrap;html=1;" parent="1" vertex="1">
                    <mxGeometry x="470" y="1040" width="70" height="80" as="geometry"/>
                </mxCell>
                <mxCell id="32" value="入力エラー" style="ellipse;shape=umlControl;whiteSpace=wrap;html=1;" parent="1" vertex="1">
                    <mxGeometry x="290" y="490" width="70" height="80" as="geometry"/>
                </mxCell>
                <mxCell id="33" value="" style="endArrow=open;endFill=1;endSize=12;html=1;" parent="1" edge="1">
                    <mxGeometry width="160" relative="1" as="geometry">
                        <mxPoint x="290" y="709.5" as="sourcePoint"/>
                        <mxPoint x="370" y="710" as="targetPoint"/>
                    </mxGeometry>
                </mxCell>
                <mxCell id="34" value="" style="endArrow=open;endFill=1;endSize=12;html=1;" parent="1" source="103" target="29" edge="1">
                    <mxGeometry width="160" relative="1" as="geometry">
                        <mxPoint x="680" y="660" as="sourcePoint"/>
                        <mxPoint x="560" y="680" as="targetPoint"/>
                    </mxGeometry>
                </mxCell>
                <mxCell id="35" value="" style="endArrow=open;endFill=1;endSize=12;html=1;" parent="1" target="100" edge="1">
                    <mxGeometry width="160" relative="1" as="geometry">
                        <mxPoint x="450" y="710" as="sourcePoint"/>
                        <mxPoint x="353" y="769.04" as="targetPoint"/>
                        <Array as="points">
                            <mxPoint x="490" y="710"/>
                            <mxPoint x="500" y="710"/>
                        </Array>
                    </mxGeometry>
                </mxCell>
                <mxCell id="38" value="" style="endArrow=open;endFill=1;endSize=12;html=1;entryX=1.043;entryY=0.7;entryDx=0;entryDy=0;entryPerimeter=0;" parent="1" target="32" edge="1">
                    <mxGeometry width="160" relative="1" as="geometry">
                        <mxPoint x="410" y="680" as="sourcePoint"/>
                        <mxPoint x="570" y="680" as="targetPoint"/>
                    </mxGeometry>
                </mxCell>
                <mxCell id="39" value="" style="endArrow=open;endFill=1;endSize=12;html=1;entryX=0.56;entryY=-0.037;entryDx=0;entryDy=0;entryPerimeter=0;" parent="1" target="22" edge="1">
                    <mxGeometry width="160" relative="1" as="geometry">
                        <mxPoint x="290" y="540" as="sourcePoint"/>
                        <mxPoint x="450" y="540" as="targetPoint"/>
                    </mxGeometry>
                </mxCell>
                <mxCell id="41" value="" style="endArrow=open;endFill=1;endSize=12;html=1;" parent="1" edge="1">
                    <mxGeometry width="160" relative="1" as="geometry">
                        <mxPoint x="290" y="839.5" as="sourcePoint"/>
                        <mxPoint x="370" y="840" as="targetPoint"/>
                    </mxGeometry>
                </mxCell>
                <mxCell id="42" value="" style="endArrow=open;endFill=1;endSize=12;html=1;exitX=0.086;exitY=0.863;exitDx=0;exitDy=0;exitPerimeter=0;entryX=0.95;entryY=0.188;entryDx=0;entryDy=0;entryPerimeter=0;" parent="1" source="28" target="24" edge="1">
                    <mxGeometry width="160" relative="1" as="geometry">
                        <mxPoint x="325" y="900" as="sourcePoint"/>
                        <mxPoint x="485" y="900" as="targetPoint"/>
                    </mxGeometry>
                </mxCell>
                <mxCell id="43" value="" style="endArrow=open;endFill=1;endSize=12;html=1;" parent="1" edge="1">
                    <mxGeometry width="160" relative="1" as="geometry">
                        <mxPoint x="290" y="959.5" as="sourcePoint"/>
                        <mxPoint x="370" y="960" as="targetPoint"/>
                    </mxGeometry>
                </mxCell>
                <mxCell id="45" value="" style="endArrow=open;endFill=1;endSize=12;html=1;entryX=0.83;entryY=0.938;entryDx=0;entryDy=0;entryPerimeter=0;" parent="1" target="22" edge="1">
                    <mxGeometry width="160" relative="1" as="geometry">
                        <mxPoint x="380" y="940" as="sourcePoint"/>
                        <mxPoint x="540" y="940" as="targetPoint"/>
                    </mxGeometry>
                </mxCell>
                <mxCell id="46" value="" style="endArrow=open;endFill=1;endSize=12;html=1;" parent="1" target="30" edge="1">
                    <mxGeometry width="160" relative="1" as="geometry">
                        <mxPoint x="280" y="980" as="sourcePoint"/>
                        <mxPoint x="440" y="980" as="targetPoint"/>
                    </mxGeometry>
                </mxCell>
                <mxCell id="47" value="" style="endArrow=open;endFill=1;endSize=12;html=1;exitX=-0.029;exitY=0.55;exitDx=0;exitDy=0;exitPerimeter=0;" parent="1" source="30" edge="1">
                    <mxGeometry width="160" relative="1" as="geometry">
                        <mxPoint x="370" y="1090" as="sourcePoint"/>
                        <mxPoint x="410" y="1084" as="targetPoint"/>
                    </mxGeometry>
                </mxCell>
                <mxCell id="58" value="Actor" style="shape=umlActor;verticalLabelPosition=bottom;verticalAlign=top;html=1;" parent="1" vertex="1">
                    <mxGeometry x="90" y="1420" width="30" height="60" as="geometry"/>
                </mxCell>
                <mxCell id="59" value="本の検索画面" style="shape=umlBoundary;whiteSpace=wrap;html=1;" parent="1" vertex="1">
                    <mxGeometry x="190" y="1300" width="100" height="80" as="geometry"/>
                </mxCell>
                <mxCell id="60" value="本の削除画面" style="shape=umlBoundary;whiteSpace=wrap;html=1;" parent="1" vertex="1">
                    <mxGeometry x="190" y="1430" width="100" height="80" as="geometry"/>
                </mxCell>
                <mxCell id="61" value="確認画面" style="shape=umlBoundary;whiteSpace=wrap;html=1;" parent="1" vertex="1">
                    <mxGeometry x="190" y="1540" width="100" height="80" as="geometry"/>
                </mxCell>
                <mxCell id="62" value="メイン画面" style="shape=umlBoundary;whiteSpace=wrap;html=1;" parent="1" vertex="1">
                    <mxGeometry x="190" y="1670" width="100" height="80" as="geometry"/>
                </mxCell>
                <mxCell id="63" value="本の情報を入力し検索" style="ellipse;shape=umlControl;whiteSpace=wrap;html=1;" parent="1" vertex="1">
                    <mxGeometry x="370" y="1300" width="70" height="80" as="geometry"/>
                </mxCell>
                <mxCell id="64" value="削除をやめるボタンを押す" style="ellipse;shape=umlControl;whiteSpace=wrap;html=1;" parent="1" vertex="1">
                    <mxGeometry x="370" y="1550" width="70" height="80" as="geometry"/>
                </mxCell>
                <mxCell id="65" value="削除する本の情報を確認" style="ellipse;shape=umlControl;whiteSpace=wrap;html=1;" parent="1" vertex="1">
                    <mxGeometry x="370" y="1430" width="70" height="80" as="geometry"/>
                </mxCell>
                <mxCell id="66" value="" style="edgeStyle=none;html=1;" parent="1" source="67" target="59" edge="1">
                    <mxGeometry relative="1" as="geometry"/>
                </mxCell>
                <mxCell id="67" value="検索結果がないことを表示" style="ellipse;shape=umlControl;whiteSpace=wrap;html=1;" parent="1" vertex="1">
                    <mxGeometry x="550" y="1160" width="70" height="80" as="geometry"/>
                </mxCell>
                <mxCell id="68" value="削除ボタンを押す" style="ellipse;shape=umlControl;whiteSpace=wrap;html=1;" parent="1" vertex="1">
                    <mxGeometry x="485" y="1670" width="70" height="80" as="geometry"/>
                </mxCell>
                <mxCell id="69" value="戻るボタンを押す" style="ellipse;shape=umlControl;whiteSpace=wrap;html=1;" parent="1" vertex="1">
                    <mxGeometry x="550" y="1500" width="70" height="80" as="geometry"/>
                </mxCell>
                <mxCell id="70" value="" style="endArrow=open;endFill=1;endSize=12;html=1;" parent="1" edge="1">
                    <mxGeometry width="160" relative="1" as="geometry">
                        <mxPoint x="290" y="1339.5" as="sourcePoint"/>
                        <mxPoint x="370" y="1340" as="targetPoint"/>
                    </mxGeometry>
                </mxCell>
                <mxCell id="71" value="" style="endArrow=open;endFill=1;endSize=12;html=1;exitX=0.229;exitY=0.181;exitDx=0;exitDy=0;exitPerimeter=0;" parent="1" source="121" target="67" edge="1">
                    <mxGeometry width="160" relative="1" as="geometry">
                        <mxPoint x="400" y="1310" as="sourcePoint"/>
                        <mxPoint x="560" y="1310" as="targetPoint"/>
                    </mxGeometry>
                </mxCell>
                <mxCell id="72" value="" style="endArrow=open;endFill=1;endSize=12;html=1;exitX=0.086;exitY=0.856;exitDx=0;exitDy=0;exitPerimeter=0;" parent="1" source="121" target="60" edge="1">
                    <mxGeometry width="160" relative="1" as="geometry">
                        <mxPoint x="590" y="1379" as="sourcePoint"/>
                        <mxPoint x="353" y="1399.04" as="targetPoint"/>
                    </mxGeometry>
                </mxCell>
                <mxCell id="73" value="" style="endArrow=open;endFill=1;endSize=12;html=1;entryX=0.414;entryY=0.125;entryDx=0;entryDy=0;entryPerimeter=0;exitX=1.01;exitY=0.694;exitDx=0;exitDy=0;exitPerimeter=0;" parent="1" source="59" target="69" edge="1">
                    <mxGeometry width="160" relative="1" as="geometry">
                        <mxPoint x="440" y="1350" as="sourcePoint"/>
                        <mxPoint x="570" y="1310" as="targetPoint"/>
                    </mxGeometry>
                </mxCell>
                <mxCell id="75" value="" style="endArrow=open;endFill=1;endSize=12;html=1;" parent="1" edge="1">
                    <mxGeometry width="160" relative="1" as="geometry">
                        <mxPoint x="290" y="1469.5" as="sourcePoint"/>
                        <mxPoint x="370" y="1470" as="targetPoint"/>
                    </mxGeometry>
                </mxCell>
                <mxCell id="76" value="" style="endArrow=open;endFill=1;endSize=12;html=1;exitX=0.086;exitY=0.863;exitDx=0;exitDy=0;exitPerimeter=0;entryX=0.95;entryY=0.188;entryDx=0;entryDy=0;entryPerimeter=0;" parent="1" source="65" target="61" edge="1">
                    <mxGeometry width="160" relative="1" as="geometry">
                        <mxPoint x="325" y="1530" as="sourcePoint"/>
                        <mxPoint x="485" y="1530" as="targetPoint"/>
                    </mxGeometry>
                </mxCell>
                <mxCell id="77" value="" style="endArrow=open;endFill=1;endSize=12;html=1;" parent="1" edge="1">
                    <mxGeometry width="160" relative="1" as="geometry">
                        <mxPoint x="290" y="1589.5" as="sourcePoint"/>
                        <mxPoint x="370" y="1590" as="targetPoint"/>
                    </mxGeometry>
                </mxCell>
                <mxCell id="78" value="" style="endArrow=open;endFill=1;endSize=12;html=1;" parent="1" source="64" target="62" edge="1">
                    <mxGeometry width="160" relative="1" as="geometry">
                        <mxPoint x="380" y="1570" as="sourcePoint"/>
                        <mxPoint x="540" y="1570" as="targetPoint"/>
                    </mxGeometry>
                </mxCell>
                <mxCell id="79" value="" style="endArrow=open;endFill=1;endSize=12;html=1;" parent="1" target="68" edge="1">
                    <mxGeometry width="160" relative="1" as="geometry">
                        <mxPoint x="280" y="1610" as="sourcePoint"/>
                        <mxPoint x="440" y="1610" as="targetPoint"/>
                    </mxGeometry>
                </mxCell>
                <mxCell id="80" value="" style="endArrow=open;endFill=1;endSize=12;html=1;exitX=-0.029;exitY=0.55;exitDx=0;exitDy=0;exitPerimeter=0;" parent="1" source="68" edge="1">
                    <mxGeometry width="160" relative="1" as="geometry">
                        <mxPoint x="370" y="1720" as="sourcePoint"/>
                        <mxPoint x="420" y="1714" as="targetPoint"/>
                    </mxGeometry>
                </mxCell>
                <mxCell id="81" value="" style="endArrow=open;endFill=1;endSize=12;html=1;entryX=1.02;entryY=0.413;entryDx=0;entryDy=0;entryPerimeter=0;" parent="1" source="69" target="62" edge="1">
                    <mxGeometry width="160" relative="1" as="geometry">
                        <mxPoint x="230" y="1660" as="sourcePoint"/>
                        <mxPoint x="390" y="1660" as="targetPoint"/>
                    </mxGeometry>
                </mxCell>
                <mxCell id="82" value="基本フロー1" style="text;align=center;fontStyle=1;verticalAlign=middle;spacingLeft=3;spacingRight=3;strokeColor=none;rotatable=0;points=[[0,0.5],[1,0.5]];portConstraint=eastwest;" parent="1" vertex="1">
                    <mxGeometry x="280" y="450" width="80" height="26" as="geometry"/>
                </mxCell>
                <mxCell id="83" value="基本フロー2" style="text;align=center;fontStyle=1;verticalAlign=middle;spacingLeft=3;spacingRight=3;strokeColor=none;rotatable=0;points=[[0,0.5],[1,0.5]];portConstraint=eastwest;" parent="1" vertex="1">
                    <mxGeometry x="290" y="1130" width="80" height="26" as="geometry"/>
                </mxCell>
                <mxCell id="84" value="基本フロー3" style="text;align=center;fontStyle=1;verticalAlign=middle;spacingLeft=3;spacingRight=3;strokeColor=none;rotatable=0;points=[[0,0.5],[1,0.5]];portConstraint=eastwest;" parent="1" vertex="1">
                    <mxGeometry x="300" y="1760" width="80" height="26" as="geometry"/>
                </mxCell>
                <mxCell id="85" value="本台帳" style="ellipse;shape=umlEntity;whiteSpace=wrap;html=1;" parent="1" vertex="1">
                    <mxGeometry x="840" y="860" width="80" height="80" as="geometry"/>
                </mxCell>
                <mxCell id="88" value="" style="endArrow=open;endFill=1;html=1;entryX=0.857;entryY=0.906;entryDx=0;entryDy=0;entryPerimeter=0;exitX=0;exitY=0;exitDx=0;exitDy=0;strokeColor=default;shape=link;" parent="1" source="85" target="103" edge="1">
                    <mxGeometry width="160" relative="1" as="geometry">
                        <mxPoint x="506.98" y="783.52" as="sourcePoint"/>
                        <mxPoint x="440" y="730" as="targetPoint"/>
                    </mxGeometry>
                </mxCell>
                <mxCell id="90" value="" style="endArrow=open;endFill=1;html=1;entryX=1.057;entryY=0.444;entryDx=0;entryDy=0;entryPerimeter=0;exitX=0;exitY=1;exitDx=0;exitDy=0;shape=link;" parent="1" source="85" target="98" edge="1">
                    <mxGeometry width="160" relative="1" as="geometry">
                        <mxPoint x="490" y="910" as="sourcePoint"/>
                        <mxPoint x="423.02" y="856.48" as="targetPoint"/>
                    </mxGeometry>
                </mxCell>
                <mxCell id="91" value="本台帳" style="ellipse;shape=umlEntity;whiteSpace=wrap;html=1;" parent="1" vertex="1">
                    <mxGeometry x="790" y="1400" width="80" height="80" as="geometry"/>
                </mxCell>
                <mxCell id="92" value="" style="endArrow=open;endFill=1;html=1;entryX=1.014;entryY=0.631;entryDx=0;entryDy=0;entryPerimeter=0;shape=link;" parent="1" source="91" target="121" edge="1">
                    <mxGeometry width="160" relative="1" as="geometry">
                        <mxPoint x="510" y="1340" as="sourcePoint"/>
                        <mxPoint x="463.67311721816645" y="1302.9384937745333" as="targetPoint"/>
                    </mxGeometry>
                </mxCell>
                <mxCell id="94" value="" style="endArrow=open;endFill=1;html=1;exitX=0.188;exitY=0.938;exitDx=0;exitDy=0;exitPerimeter=0;entryX=1;entryY=0.375;entryDx=0;entryDy=0;entryPerimeter=0;shape=link;" parent="1" source="91" target="96" edge="1">
                    <mxGeometry width="160" relative="1" as="geometry">
                        <mxPoint x="550" y="1440" as="sourcePoint"/>
                        <mxPoint x="503.67311721816645" y="1402.9384937745333" as="targetPoint"/>
                    </mxGeometry>
                </mxCell>
                <mxCell id="96" value="本の情報を削除する" style="ellipse;shape=umlControl;whiteSpace=wrap;html=1;" parent="1" vertex="1">
                    <mxGeometry x="350" y="1670" width="70" height="80" as="geometry"/>
                </mxCell>
                <mxCell id="97" value="" style="endArrow=open;endFill=1;endSize=12;html=1;exitX=-0.029;exitY=0.55;exitDx=0;exitDy=0;exitPerimeter=0;" parent="1" edge="1">
                    <mxGeometry width="160" relative="1" as="geometry">
                        <mxPoint x="350" y="1720" as="sourcePoint"/>
                        <mxPoint x="287.03" y="1720" as="targetPoint"/>
                    </mxGeometry>
                </mxCell>
                <mxCell id="98" value="本の情報を登録する" style="ellipse;shape=umlControl;whiteSpace=wrap;html=1;" parent="1" vertex="1">
                    <mxGeometry x="340" y="1040" width="70" height="80" as="geometry"/>
                </mxCell>
                <mxCell id="99" value="" style="endArrow=open;endFill=1;endSize=12;html=1;exitX=-0.029;exitY=0.55;exitDx=0;exitDy=0;exitPerimeter=0;" parent="1" edge="1">
                    <mxGeometry width="160" relative="1" as="geometry">
                        <mxPoint x="344" y="1079.5" as="sourcePoint"/>
                        <mxPoint x="286.03" y="1079.5" as="targetPoint"/>
                    </mxGeometry>
                </mxCell>
                <mxCell id="100" value="入力内容を確認" style="ellipse;shape=umlControl;whiteSpace=wrap;html=1;" parent="1" vertex="1">
                    <mxGeometry x="515" y="670" width="70" height="80" as="geometry"/>
                </mxCell>
                <mxCell id="101" value="" style="endArrow=open;endFill=1;endSize=12;html=1;exitX=0.214;exitY=0.219;exitDx=0;exitDy=0;exitPerimeter=0;entryX=1;entryY=0.369;entryDx=0;entryDy=0;entryPerimeter=0;" parent="1" source="100" target="32" edge="1">
                    <mxGeometry width="160" relative="1" as="geometry">
                        <mxPoint x="500" y="610" as="sourcePoint"/>
                        <mxPoint x="565" y="610" as="targetPoint"/>
                        <Array as="points">
                            <mxPoint x="480" y="630"/>
                            <mxPoint x="450" y="600"/>
                        </Array>
                    </mxGeometry>
                </mxCell>
                <mxCell id="102" value="" style="endArrow=open;endFill=1;endSize=12;html=1;" parent="1" edge="1">
                    <mxGeometry width="160" relative="1" as="geometry">
                        <mxPoint x="590" y="709.5" as="sourcePoint"/>
                        <mxPoint x="655" y="709.5" as="targetPoint"/>
                        <Array as="points">
                            <mxPoint x="630" y="709.5"/>
                            <mxPoint x="640" y="709.5"/>
                        </Array>
                    </mxGeometry>
                </mxCell>
                <mxCell id="103" value="入力内容から本の内容を検索" style="ellipse;shape=umlControl;whiteSpace=wrap;html=1;" parent="1" vertex="1">
                    <mxGeometry x="660" y="670" width="70" height="80" as="geometry"/>
                </mxCell>
                <mxCell id="105" value="" style="endArrow=open;endFill=1;endSize=12;html=1;exitX=0.214;exitY=0.969;exitDx=0;exitDy=0;exitPerimeter=0;" parent="1" source="103" target="23" edge="1">
                    <mxGeometry width="160" relative="1" as="geometry">
                        <mxPoint x="600" y="820" as="sourcePoint"/>
                        <mxPoint x="298.47524714904125" y="746.6064149595543" as="targetPoint"/>
                    </mxGeometry>
                </mxCell>
                <mxCell id="107" value="入力内容を確認" style="ellipse;shape=umlControl;whiteSpace=wrap;html=1;" parent="1" vertex="1">
                    <mxGeometry x="515" y="100" width="70" height="80" as="geometry"/>
                </mxCell>
                <mxCell id="108" value="" style="endArrow=open;endFill=1;endSize=12;html=1;exitX=1;exitY=0.606;exitDx=0;exitDy=0;exitPerimeter=0;entryX=0;entryY=0.619;entryDx=0;entryDy=0;entryPerimeter=0;" parent="1" source="4" target="107" edge="1">
                    <mxGeometry width="160" relative="1" as="geometry">
                        <mxPoint x="470" y="100" as="sourcePoint"/>
                        <mxPoint x="168.47524714904125" y="26.606414959554286" as="targetPoint"/>
                    </mxGeometry>
                </mxCell>
                <mxCell id="109" value="本の情報を登録する" style="ellipse;shape=umlControl;whiteSpace=wrap;html=1;" parent="1" vertex="1">
                    <mxGeometry x="360" y="360" width="70" height="80" as="geometry"/>
                </mxCell>
                <mxCell id="110" value="" style="endArrow=open;endFill=1;html=1;exitX=0;exitY=0.5;exitDx=0;exitDy=0;shape=link;" parent="1" source="6" target="109" edge="1">
                    <mxGeometry width="160" relative="1" as="geometry">
                        <mxPoint x="550" y="260" as="sourcePoint"/>
                        <mxPoint x="248.47524714904125" y="186.6064149595543" as="targetPoint"/>
                    </mxGeometry>
                </mxCell>
                <mxCell id="111" value="" style="endArrow=open;endFill=1;endSize=12;html=1;exitX=-0.029;exitY=0.544;exitDx=0;exitDy=0;exitPerimeter=0;entryX=1.029;entryY=0.531;entryDx=0;entryDy=0;entryPerimeter=0;" parent="1" source="14" target="109" edge="1">
                    <mxGeometry width="160" relative="1" as="geometry">
                        <mxPoint x="520" y="230" as="sourcePoint"/>
                        <mxPoint x="218.47524714904125" y="156.6064149595543" as="targetPoint"/>
                    </mxGeometry>
                </mxCell>
                <mxCell id="115" value="入力内容に誤りがある" style="text;html=1;align=center;verticalAlign=middle;resizable=0;points=[];autosize=1;strokeColor=none;fillColor=none;" parent="1" vertex="1">
                    <mxGeometry x="410" y="70" width="140" height="20" as="geometry"/>
                </mxCell>
                <mxCell id="116" value="入力内容に誤りがある" style="text;html=1;align=center;verticalAlign=middle;resizable=0;points=[];autosize=1;strokeColor=none;fillColor=none;" parent="1" vertex="1">
                    <mxGeometry x="440" y="580" width="140" height="20" as="geometry"/>
                </mxCell>
                <mxCell id="117" value="検索結果がない" style="text;html=1;align=center;verticalAlign=middle;resizable=0;points=[];autosize=1;strokeColor=none;fillColor=none;" parent="1" vertex="1">
                    <mxGeometry x="560" y="650" width="100" height="20" as="geometry"/>
                </mxCell>
                <mxCell id="119" value="検索結果がない" style="text;html=1;align=center;verticalAlign=middle;resizable=0;points=[];autosize=1;strokeColor=none;fillColor=none;" parent="1" vertex="1">
                    <mxGeometry x="620" y="1260" width="100" height="20" as="geometry"/>
                </mxCell>
                <mxCell id="120" value="入力内容を確認" style="ellipse;shape=umlControl;whiteSpace=wrap;html=1;" parent="1" vertex="1">
                    <mxGeometry x="490" y="1300" width="70" height="80" as="geometry"/>
                </mxCell>
                <mxCell id="121" value="入力内容から本の内容を検索" style="ellipse;shape=umlControl;whiteSpace=wrap;html=1;" parent="1" vertex="1">
                    <mxGeometry x="620" y="1300" width="70" height="80" as="geometry"/>
                </mxCell>
                <mxCell id="123" value="" style="endArrow=open;endFill=1;endSize=12;html=1;" parent="1" edge="1">
                    <mxGeometry width="160" relative="1" as="geometry">
                        <mxPoint x="440" y="1339.5" as="sourcePoint"/>
                        <mxPoint x="490" y="1340" as="targetPoint"/>
                    </mxGeometry>
                </mxCell>
                <mxCell id="124" value="" style="endArrow=open;endFill=1;endSize=12;html=1;" parent="1" edge="1">
                    <mxGeometry width="160" relative="1" as="geometry">
                        <mxPoint x="560" y="1339.5" as="sourcePoint"/>
                        <mxPoint x="620" y="1340" as="targetPoint"/>
                    </mxGeometry>
                </mxCell>
                <mxCell id="125" value="入力エラー" style="ellipse;shape=umlControl;whiteSpace=wrap;html=1;" parent="1" vertex="1">
                    <mxGeometry x="310" y="1160" width="70" height="80" as="geometry"/>
                </mxCell>
                <mxCell id="126" value="" style="endArrow=open;endFill=1;endSize=12;html=1;exitX=0.243;exitY=0.181;exitDx=0;exitDy=0;exitPerimeter=0;entryX=0.829;entryY=0.894;entryDx=0;entryDy=0;entryPerimeter=0;" parent="1" source="120" target="125" edge="1">
                    <mxGeometry width="160" relative="1" as="geometry">
                        <mxPoint x="510" y="1260" as="sourcePoint"/>
                        <mxPoint x="560" y="1260.5" as="targetPoint"/>
                    </mxGeometry>
                </mxCell>
                <mxCell id="127" value="入力内容に誤りがある" style="text;html=1;align=center;verticalAlign=middle;resizable=0;points=[];autosize=1;strokeColor=none;fillColor=none;" parent="1" vertex="1">
                    <mxGeometry x="430" y="1260" width="140" height="20" as="geometry"/>
                </mxCell>
                <mxCell id="128" value="" style="endArrow=open;endFill=1;endSize=12;html=1;exitX=-0.029;exitY=0.719;exitDx=0;exitDy=0;exitPerimeter=0;entryX=0.64;entryY=0.006;entryDx=0;entryDy=0;entryPerimeter=0;" parent="1" source="125" target="59" edge="1">
                    <mxGeometry width="160" relative="1" as="geometry">
                        <mxPoint x="280" y="1240" as="sourcePoint"/>
                        <mxPoint x="330" y="1240.5" as="targetPoint"/>
                    </mxGeometry>
                </mxCell>
                <mxCell id="130" value="登録する" style="text;html=1;align=center;verticalAlign=middle;resizable=0;points=[];autosize=1;strokeColor=none;fillColor=none;" parent="1" vertex="1">
                    <mxGeometry x="640" y="990" width="60" height="20" as="geometry"/>
                </mxCell>
                <mxCell id="131" value="削除する" style="text;html=1;align=center;verticalAlign=middle;resizable=0;points=[];autosize=1;strokeColor=none;fillColor=none;" parent="1" vertex="1">
                    <mxGeometry x="670" y="1560" width="60" height="20" as="geometry"/>
                </mxCell>
                <mxCell id="132" value="登録する" style="text;html=1;align=center;verticalAlign=middle;resizable=0;points=[];autosize=1;strokeColor=none;fillColor=none;" parent="1" vertex="1">
                    <mxGeometry x="570" y="320" width="60" height="20" as="geometry"/>
                </mxCell>
                <mxCell id="133" value="本のタイトル,巻数から検索" style="text;html=1;align=center;verticalAlign=middle;resizable=0;points=[];autosize=1;strokeColor=none;fillColor=none;" parent="1" vertex="1">
                    <mxGeometry x="760" y="800" width="160" height="20" as="geometry"/>
                </mxCell>
                <mxCell id="134" value="本のタイトル,巻数から検索" style="text;html=1;align=center;verticalAlign=middle;resizable=0;points=[];autosize=1;strokeColor=none;fillColor=none;" parent="1" vertex="1">
                    <mxGeometry x="730" y="1360" width="160" height="20" as="geometry"/>
                </mxCell>
                <mxCell id="135" value="本" style="ellipse;shape=umlEntity;whiteSpace=wrap;html=1;" vertex="1" parent="1">
                    <mxGeometry x="700" y="860" width="80" height="80" as="geometry"/>
                </mxCell>
                <mxCell id="136" value="" style="endArrow=open;endFill=1;html=1;exitX=0;exitY=0;exitDx=0;exitDy=0;strokeColor=default;shape=link;" edge="1" parent="1" target="103">
                    <mxGeometry width="160" relative="1" as="geometry">
                        <mxPoint x="735.86" y="860" as="sourcePoint"/>
                        <mxPoint x="604.1342712474622" y="730.7642712474621" as="targetPoint"/>
                    </mxGeometry>
                </mxCell>
                <mxCell id="138" value="" style="endArrow=open;endFill=1;html=1;exitX=0;exitY=0.25;exitDx=0;exitDy=0;strokeColor=default;shape=link;exitPerimeter=0;entryX=1.043;entryY=0.525;entryDx=0;entryDy=0;entryPerimeter=0;" edge="1" parent="1" source="135" target="28">
                    <mxGeometry width="160" relative="1" as="geometry">
                        <mxPoint x="540" y="850" as="sourcePoint"/>
                        <mxPoint x="509.3433438023494" y="738.2625392588106" as="targetPoint"/>
                    </mxGeometry>
                </mxCell>
                <mxCell id="139" value="" style="endArrow=open;endFill=1;html=1;exitX=-0.012;exitY=0.6;exitDx=0;exitDy=0;strokeColor=default;shape=link;exitPerimeter=0;" edge="1" parent="1" source="135" target="98">
                    <mxGeometry width="160" relative="1" as="geometry">
                        <mxPoint x="560" y="920" as="sourcePoint"/>
                        <mxPoint x="529.3433438023494" y="808.2625392588106" as="targetPoint"/>
                    </mxGeometry>
                </mxCell>
                <mxCell id="140" value="本" style="ellipse;shape=umlEntity;whiteSpace=wrap;html=1;" vertex="1" parent="1">
                    <mxGeometry x="790" y="1520" width="80" height="80" as="geometry"/>
                </mxCell>
                <mxCell id="141" value="" style="endArrow=open;endFill=1;html=1;exitX=0.25;exitY=0;exitDx=0;exitDy=0;strokeColor=default;shape=link;exitPerimeter=0;" edge="1" parent="1" source="140">
                    <mxGeometry width="160" relative="1" as="geometry">
                        <mxPoint x="680" y="1400" as="sourcePoint"/>
                        <mxPoint x="670" y="1380" as="targetPoint"/>
                    </mxGeometry>
                </mxCell>
                <mxCell id="142" value="" style="endArrow=open;endFill=1;html=1;exitX=0.075;exitY=0.788;exitDx=0;exitDy=0;strokeColor=default;shape=link;exitPerimeter=0;" edge="1" parent="1" source="140" target="96">
                    <mxGeometry width="160" relative="1" as="geometry">
                        <mxPoint x="630" y="1460" as="sourcePoint"/>
                        <mxPoint x="620" y="1510" as="targetPoint"/>
                    </mxGeometry>
                </mxCell>
                <mxCell id="143" value="" style="endArrow=open;endFill=1;html=1;exitX=0.075;exitY=0.125;exitDx=0;exitDy=0;strokeColor=default;shape=link;exitPerimeter=0;entryX=1;entryY=0.425;entryDx=0;entryDy=0;entryPerimeter=0;" edge="1" parent="1" source="140" target="65">
                    <mxGeometry width="160" relative="1" as="geometry">
                        <mxPoint x="610" y="1460" as="sourcePoint"/>
                        <mxPoint x="579.3433438023494" y="1348.2625392588106" as="targetPoint"/>
                    </mxGeometry>
                </mxCell>
                <mxCell id="144" value="本" style="ellipse;shape=umlEntity;whiteSpace=wrap;html=1;" vertex="1" parent="1">
                    <mxGeometry x="545" y="220" width="80" height="80" as="geometry"/>
                </mxCell>
                <mxCell id="145" value="" style="endArrow=open;endFill=1;html=1;exitX=0.038;exitY=0.725;exitDx=0;exitDy=0;strokeColor=default;shape=link;exitPerimeter=0;" edge="1" parent="1" source="144" target="109">
                    <mxGeometry width="160" relative="1" as="geometry">
                        <mxPoint x="500" y="300" as="sourcePoint"/>
                        <mxPoint x="469.3433438023494" y="188.26253925881065" as="targetPoint"/>
                    </mxGeometry>
                </mxCell>
            </root>
        </mxGraphModel>
    </diagram>
</mxfile>